<svg xmlns="http://www.w3.org/2000/svg" width="14" height="18" viewBox="0 0 14 18" fill="none"><path fill-rule="evenodd" clip-rule="evenodd" d="M7 18C7 18 14 13.0909 14 7.36364C14 5.41068 13.2625 3.53771 11.9497 2.15676C10.637 0.775809 8.85652 0 7 0C5.14348 0 3.36301 0.775809 2.05025 2.15676C0.737498 3.53771 0 5.41068 0 7.36364C0 13.0909 7 18 7 18ZM9.33335 7.36348C9.33335 8.71909 8.28868 9.81803 7.00002 9.81803C5.71136 9.81803 4.66669 8.71909 4.66669 7.36348C4.66669 6.00787 5.71136 4.90894 7.00002 4.90894C8.28868 4.90894 9.33335 6.00787 9.33335 7.36348Z" fill="white"></path></svg>